<svg width="16" height="16" viewBox="0 0 16 16" fill="none" xmlns="http://www.w3.org/2000/svg">
<path d="M7.99651 14.4C7.66551 14.4 7.38335 14.2825 7.15001 14.0475C6.91668 13.8125 6.80001 13.53 6.80001 13.2H9.20001C9.20001 13.5333 9.08218 13.8167 8.84651 14.05C8.61085 14.2833 8.32751 14.4 7.99651 14.4ZM5.60001 12.4V11.2H10.4V12.4H5.60001ZM5.35001 10.4C4.66112 9.97778 4.13057 9.40833 3.75835 8.69167C3.38612 7.975 3.20001 7.21111 3.20001 6.4C3.20001 5.06667 3.66668 3.93333 4.60001 3C5.53335 2.06667 6.66668 1.6 8.00001 1.6C9.33335 1.6 10.4667 2.06667 11.4 3C12.3333 3.93333 12.8 5.06667 12.8 6.4C12.8 7.21111 12.6139 7.975 12.2417 8.69167C11.8695 9.40833 11.3389 9.97778 10.65 10.4H5.35001ZM5.73335 9.2H10.2667C10.6889 8.85555 11.0167 8.43889 11.25 7.95C11.4833 7.46111 11.6 6.94444 11.6 6.4C11.6 5.39633 11.2513 4.54544 10.5538 3.84733C9.8564 3.14911 9.0064 2.8 8.00385 2.8C7.00129 2.8 6.15001 3.14911 5.45001 3.84733C4.75001 4.54544 4.40001 5.39633 4.40001 6.4C4.40001 6.94444 4.51668 7.46111 4.75001 7.95C4.98335 8.43889 5.31112 8.85555 5.73335 9.2Z" fill="#FFE606"/>
</svg>
