<svg width="436" height="70" viewBox="0 0 436 70" fill="none" xmlns="http://www.w3.org/2000/svg">
<path d="M0.312012 51V6.19999H20.664C25.528 6.19999 29.816 7.13866 33.528 9.01599C37.24 10.8507 40.1413 13.432 42.232 16.76C44.3227 20.088 45.368 24.0347 45.368 28.6C45.368 33.1227 44.3227 37.0693 42.232 40.44C40.1413 43.768 37.24 46.3707 33.528 48.248C29.816 50.0827 25.528 51 20.664 51H0.312012ZM10.68 42.488H20.152C23.1387 42.488 25.72 41.9333 27.896 40.824C30.1147 39.672 31.8213 38.0507 33.016 35.96C34.2533 33.8693 34.872 31.416 34.872 28.6C34.872 25.7413 34.2533 23.288 33.016 21.24C31.8213 19.1493 30.1147 17.5493 27.896 16.44C25.72 15.288 23.1387 14.712 20.152 14.712H10.68V42.488Z" fill="white"/>
<path d="M69.571 51.512C65.6457 51.512 62.1897 50.744 59.203 49.208C56.259 47.672 53.9763 45.5813 52.355 42.936C50.7337 40.248 49.923 37.1973 49.923 33.784C49.923 30.328 50.7123 27.2773 52.291 24.632C53.9123 21.944 56.1097 19.8533 58.883 18.36C61.6563 16.824 64.7923 16.056 68.291 16.056C71.6617 16.056 74.691 16.7813 77.379 18.232C80.1097 19.64 82.2644 21.688 83.843 24.376C85.4217 27.0213 86.211 30.2 86.211 33.912C86.211 34.296 86.1897 34.744 86.147 35.256C86.1043 35.7253 86.0617 36.1733 86.019 36.6H58.051V30.776H80.771L76.931 32.504C76.931 30.712 76.5683 29.1547 75.843 27.832C75.1177 26.5093 74.115 25.4853 72.835 24.76C71.555 23.992 70.0617 23.608 68.355 23.608C66.6483 23.608 65.1337 23.992 63.811 24.76C62.531 25.4853 61.5283 26.5307 60.803 27.896C60.0777 29.2187 59.715 30.7973 59.715 32.632V34.168C59.715 36.0453 60.1203 37.7093 60.931 39.16C61.7843 40.568 62.9577 41.656 64.451 42.424C65.987 43.1493 67.779 43.512 69.827 43.512C71.6617 43.512 73.2617 43.2347 74.627 42.68C76.035 42.1253 77.315 41.2933 78.467 40.184L83.779 45.944C82.2003 47.736 80.2163 49.1227 77.827 50.104C75.4377 51.0427 72.6857 51.512 69.571 51.512Z" fill="white"/>
<path d="M104.442 51.512C101.498 51.512 98.6607 51.1707 95.93 50.488C93.242 49.7627 91.1087 48.8667 89.53 47.8L92.858 40.632C94.4367 41.6133 96.2927 42.424 98.426 43.064C100.602 43.6613 102.735 43.96 104.826 43.96C107.13 43.96 108.751 43.6827 109.69 43.128C110.671 42.5733 111.162 41.8053 111.162 40.824C111.162 40.0133 110.778 39.416 110.01 39.032C109.285 38.6053 108.303 38.2853 107.066 38.072C105.829 37.8587 104.463 37.6453 102.97 37.432C101.519 37.2187 100.047 36.9413 98.554 36.6C97.0607 36.216 95.6953 35.6613 94.458 34.936C93.2207 34.2107 92.218 33.2293 91.45 31.992C90.7247 30.7547 90.362 29.1547 90.362 27.192C90.362 25.016 90.9807 23.096 92.218 21.432C93.498 19.768 95.3327 18.4667 97.722 17.528C100.111 16.5467 102.97 16.056 106.298 16.056C108.645 16.056 111.034 16.312 113.466 16.824C115.898 17.336 117.925 18.0827 119.546 19.064L116.218 26.168C114.554 25.1867 112.869 24.5253 111.162 24.184C109.498 23.8 107.877 23.608 106.298 23.608C104.079 23.608 102.458 23.9067 101.434 24.504C100.41 25.1013 99.898 25.8693 99.898 26.808C99.898 27.6613 100.261 28.3013 100.986 28.728C101.754 29.1547 102.757 29.496 103.994 29.752C105.231 30.008 106.575 30.2427 108.026 30.456C109.519 30.6267 111.013 30.904 112.506 31.288C113.999 31.672 115.343 32.2267 116.538 32.952C117.775 33.6347 118.778 34.5947 119.546 35.832C120.314 37.0267 120.698 38.6053 120.698 40.568C120.698 42.7013 120.058 44.6 118.778 46.264C117.498 47.8853 115.642 49.1653 113.21 50.104C110.821 51.0427 107.898 51.512 104.442 51.512Z" fill="white"/>
<path d="M147.978 51V44.28L147.338 42.808V30.776C147.338 28.6427 146.677 26.9787 145.354 25.784C144.074 24.5893 142.09 23.992 139.402 23.992C137.567 23.992 135.754 24.2907 133.962 24.888C132.213 25.4427 130.719 26.2107 129.482 27.192L125.898 20.216C127.775 18.8933 130.037 17.8693 132.682 17.144C135.327 16.4187 138.015 16.056 140.746 16.056C145.994 16.056 150.069 17.2933 152.97 19.768C155.871 22.2427 157.322 26.104 157.322 31.352V51H147.978ZM137.482 51.512C134.794 51.512 132.49 51.064 130.57 50.168C128.65 49.2293 127.178 47.9707 126.154 46.392C125.13 44.8133 124.618 43.0427 124.618 41.08C124.618 39.032 125.109 37.24 126.09 35.704C127.114 34.168 128.714 32.9733 130.89 32.12C133.066 31.224 135.903 30.776 139.402 30.776H148.554V36.6H140.49C138.143 36.6 136.522 36.984 135.626 37.752C134.773 38.52 134.346 39.48 134.346 40.632C134.346 41.912 134.837 42.936 135.818 43.704C136.842 44.4293 138.229 44.792 139.978 44.792C141.642 44.792 143.135 44.408 144.458 43.64C145.781 42.8293 146.741 41.656 147.338 40.12L148.874 44.728C148.149 46.9467 146.826 48.632 144.906 49.784C142.986 50.936 140.511 51.512 137.482 51.512Z" fill="white"/>
<path d="M167.574 51V15.8C167.574 11.9173 168.726 8.82399 171.03 6.51999C173.334 4.17332 176.619 2.99999 180.886 2.99999C182.337 2.99999 183.723 3.14932 185.046 3.44799C186.411 3.74666 187.563 4.21599 188.502 4.85599L185.878 12.088C185.323 11.704 184.705 11.4053 184.022 11.192C183.339 10.9787 182.614 10.872 181.846 10.872C180.395 10.872 179.265 11.2987 178.454 12.152C177.686 12.9627 177.302 14.2 177.302 15.864V19.064L177.558 23.352V51H167.574ZM162.262 25.016V17.336H186.134V25.016H162.262ZM191.766 51V16.568H201.75V51H191.766ZM196.758 11.768C194.923 11.768 193.43 11.2347 192.278 10.168C191.126 9.10132 190.55 7.77866 190.55 6.19999C190.55 4.62132 191.126 3.29866 192.278 2.23199C193.43 1.16532 194.923 0.631989 196.758 0.631989C198.593 0.631989 200.086 1.14399 201.238 2.16799C202.39 3.14933 202.966 4.42933 202.966 6.00799C202.966 7.67199 202.39 9.05866 201.238 10.168C200.129 11.2347 198.635 11.768 196.758 11.768Z" fill="white"/>
<path d="M269.569 51.768C266.028 51.768 262.764 51.2133 259.777 50.104C256.833 48.952 254.252 47.3307 252.033 45.24C249.857 43.1493 248.15 40.696 246.913 37.88C245.718 35.064 245.121 31.9707 245.121 28.6C245.121 25.2293 245.718 22.136 246.913 19.32C248.15 16.504 249.878 14.0507 252.097 11.96C254.316 9.86932 256.918 8.26932 259.905 7.15999C262.892 6.00799 266.177 5.43199 269.761 5.43199C273.729 5.43199 277.292 6.09332 280.449 7.41599C283.649 8.73866 286.337 10.6587 288.513 13.176L281.857 19.32C280.236 17.6133 278.465 16.3547 276.545 15.544C274.625 14.6907 272.534 14.264 270.273 14.264C268.097 14.264 266.113 14.6053 264.321 15.288C262.529 15.9707 260.972 16.952 259.649 18.232C258.369 19.512 257.366 21.0267 256.641 22.776C255.958 24.5253 255.617 26.4667 255.617 28.6C255.617 30.6907 255.958 32.6107 256.641 34.36C257.366 36.1093 258.369 37.6453 259.649 38.968C260.972 40.248 262.508 41.2293 264.257 41.912C266.049 42.5947 268.012 42.936 270.145 42.936C272.193 42.936 274.177 42.616 276.097 41.976C278.06 41.2933 279.958 40.1627 281.793 38.584L287.681 46.072C285.249 47.9067 282.412 49.3147 279.169 50.296C275.969 51.2773 272.769 51.768 269.569 51.768ZM278.209 44.728V27.896H287.681V46.072L278.209 44.728Z" fill="white"/>
<path d="M313.696 51.512C309.771 51.512 306.315 50.744 303.328 49.208C300.384 47.672 298.101 45.5813 296.48 42.936C294.859 40.248 294.048 37.1973 294.048 33.784C294.048 30.328 294.837 27.2773 296.416 24.632C298.037 21.944 300.235 19.8533 303.008 18.36C305.781 16.824 308.917 16.056 312.416 16.056C315.787 16.056 318.816 16.7813 321.504 18.232C324.235 19.64 326.389 21.688 327.968 24.376C329.547 27.0213 330.336 30.2 330.336 33.912C330.336 34.296 330.315 34.744 330.272 35.256C330.229 35.7253 330.187 36.1733 330.144 36.6H302.176V30.776H324.896L321.056 32.504C321.056 30.712 320.693 29.1547 319.968 27.832C319.243 26.5093 318.24 25.4853 316.96 24.76C315.68 23.992 314.187 23.608 312.48 23.608C310.773 23.608 309.259 23.992 307.936 24.76C306.656 25.4853 305.653 26.5307 304.928 27.896C304.203 29.2187 303.84 30.7973 303.84 32.632V34.168C303.84 36.0453 304.245 37.7093 305.056 39.16C305.909 40.568 307.083 41.656 308.576 42.424C310.112 43.1493 311.904 43.512 313.952 43.512C315.787 43.512 317.387 43.2347 318.752 42.68C320.16 42.1253 321.44 41.2933 322.592 40.184L327.904 45.944C326.325 47.736 324.341 49.1227 321.952 50.104C319.563 51.0427 316.811 51.512 313.696 51.512ZM299.36 12.152L307.808 2.93599H316.64L325.088 12.152H317.792L308.96 4.47199H315.488L306.656 12.152H299.36Z" fill="white"/>
<path d="M357.911 16.056C360.642 16.056 363.074 16.6107 365.207 17.72C367.383 18.7867 369.09 20.4507 370.327 22.712C371.564 24.9307 372.183 27.7893 372.183 31.288V51H362.199V32.824C362.199 30.0507 361.58 28.0027 360.343 26.68C359.148 25.3573 357.442 24.696 355.223 24.696C353.644 24.696 352.215 25.0373 350.935 25.72C349.698 26.36 348.716 27.3627 347.991 28.728C347.308 30.0933 346.967 31.8427 346.967 33.976V51H336.983V16.568H346.519V26.104L344.727 23.224C345.964 20.92 347.735 19.1493 350.039 17.912C352.343 16.6747 354.967 16.056 357.911 16.056Z" fill="white"/>
<path d="M381.233 51V16.568H391.217V51H381.233ZM386.225 11.768C384.39 11.768 382.897 11.2347 381.745 10.168C380.593 9.10132 380.017 7.77866 380.017 6.19999C380.017 4.62132 380.593 3.29866 381.745 2.23199C382.897 1.16532 384.39 0.631989 386.225 0.631989C388.06 0.631989 389.553 1.14399 390.705 2.16799C391.857 3.14933 392.433 4.42933 392.433 6.00799C392.433 7.67199 391.857 9.05866 390.705 10.168C389.596 11.2347 388.102 11.768 386.225 11.768Z" fill="white"/>
<path d="M416.867 51.512C413.198 51.512 409.934 50.744 407.075 49.208C404.259 47.672 402.019 45.5813 400.355 42.936C398.734 40.248 397.923 37.1973 397.923 33.784C397.923 30.328 398.734 27.2773 400.355 24.632C402.019 21.944 404.259 19.8533 407.075 18.36C409.934 16.824 413.198 16.056 416.867 16.056C420.494 16.056 423.736 16.824 426.595 18.36C429.454 19.8533 431.694 21.9227 433.315 24.568C434.936 27.2133 435.747 30.2853 435.747 33.784C435.747 37.1973 434.936 40.248 433.315 42.936C431.694 45.5813 429.454 47.672 426.595 49.208C423.736 50.744 420.494 51.512 416.867 51.512ZM416.867 43.32C418.531 43.32 420.024 42.936 421.347 42.168C422.67 41.4 423.715 40.312 424.483 38.904C425.251 37.4533 425.635 35.7467 425.635 33.784C425.635 31.7787 425.251 30.072 424.483 28.664C423.715 27.256 422.67 26.168 421.347 25.4C420.024 24.632 418.531 24.248 416.867 24.248C415.203 24.248 413.71 24.632 412.387 25.4C411.064 26.168 409.998 27.256 409.187 28.664C408.419 30.072 408.035 31.7787 408.035 33.784C408.035 35.7467 408.419 37.4533 409.187 38.904C409.998 40.312 411.064 41.4 412.387 42.168C413.71 42.936 415.203 43.32 416.867 43.32Z" fill="white"/>
<path d="M223.5 69.4167C221.965 69.4167 220.65 68.87 219.557 67.7766C218.463 66.6832 217.917 65.3687 217.917 63.8333H229.083C229.083 65.3687 228.537 66.6832 227.443 67.7766C226.35 68.87 225.035 69.4167 223.5 69.4167ZM212.333 61.0417V55.4583H234.667V61.0417H212.333ZM213.031 52.6667C209.821 50.759 207.273 48.2 205.389 44.9896C203.505 41.7792 202.563 38.2896 202.563 34.5208C202.563 28.7049 204.598 23.7613 208.669 19.6901C212.74 15.6189 217.684 13.5833 223.5 13.5833C229.316 13.5833 234.26 15.6189 238.331 19.6901C242.402 23.7613 244.438 28.7049 244.438 34.5208C244.438 38.2896 243.495 41.7792 241.611 44.9896C239.727 48.2 237.179 50.759 233.969 52.6667H213.031ZM214.706 47.0833H232.294C234.388 45.5944 236.004 43.7566 237.144 41.5698C238.284 39.383 238.854 37.0333 238.854 34.5208C238.854 30.2403 237.365 26.6111 234.388 23.6333C231.41 20.6555 227.781 19.1667 223.5 19.1667C219.219 19.1667 215.59 20.6555 212.613 23.6333C209.635 26.6111 208.146 30.2403 208.146 34.5208C208.146 37.0333 208.716 39.383 209.856 41.5698C210.996 43.7566 212.613 45.5944 214.706 47.0833Z" fill="#FFE606"/>
</svg>
